<?xml version="1.0" encoding="UTF-8" standalone="no"?>
<!-- Created with Inkscape (http://www.inkscape.org/) -->

<svg
   xmlns:dc="http://purl.org/dc/elements/1.1/"
   xmlns:cc="http://creativecommons.org/ns#"
   xmlns:rdf="http://www.w3.org/1999/02/22-rdf-syntax-ns#"
   xmlns:svg="http://www.w3.org/2000/svg"
   xmlns="http://www.w3.org/2000/svg"
   xmlns:sodipodi="http://sodipodi.sourceforge.net/DTD/sodipodi-0.dtd"
   xmlns:inkscape="http://www.inkscape.org/namespaces/inkscape"
   width="256"
   height="256"
   viewBox="0 0 256 256"
   id="svg2"
   version="1.1"
   inkscape:version="0.91 r13725"
   inkscape:export-filename="/home/yuzu/Develop/MornigInfo/static/wetherIcons/30.png"
   inkscape:export-xdpi="90"
   inkscape:export-ydpi="90"
   sodipodi:docname="drawing.svg">
  <defs
     id="defs4">
    <marker
       inkscape:stockid="Arrow2Mend"
       orient="auto"
       refY="0.0"
       refX="0.0"
       id="Arrow2Mend"
       style="overflow:visible;"
       inkscape:isstock="true">
      <path
         id="path4223"
         style="fill-rule:evenodd;stroke-width:0.625;stroke-linejoin:round;stroke:#000000;stroke-opacity:1;fill:#000000;fill-opacity:1"
         d="M 8.7185878,4.0337352 L -2.2072895,0.016013256 L 8.7185884,-4.0017078 C 6.9730900,-1.6296469 6.9831476,1.6157441 8.7185878,4.0337352 z "
         transform="scale(0.6) rotate(180) translate(0,0)" />
    </marker>
    <marker
       inkscape:stockid="Arrow1Lend"
       orient="auto"
       refY="0.0"
       refX="0.0"
       id="Arrow1Lend"
       style="overflow:visible;"
       inkscape:isstock="true">
      <path
         id="path4199"
         d="M 0.0,0.0 L 5.0,-5.0 L -12.5,0.0 L 5.0,5.0 L 0.0,0.0 z "
         style="fill-rule:evenodd;stroke:#000000;stroke-width:1pt;stroke-opacity:1;fill:#000000;fill-opacity:1"
         transform="scale(0.8) rotate(180) translate(12.5,0)" />
    </marker>
  </defs>
  <sodipodi:namedview
     id="base"
     pagecolor="#ffffff"
     bordercolor="#666666"
     borderopacity="1.0"
     inkscape:pageopacity="0.0"
     inkscape:pageshadow="2"
     inkscape:zoom="1.979899"
     inkscape:cx="125.38941"
     inkscape:cy="88.574665"
     inkscape:document-units="px"
     inkscape:current-layer="layer1"
     showgrid="false"
     units="px"
     inkscape:window-width="1920"
     inkscape:window-height="1054"
     inkscape:window-x="0"
     inkscape:window-y="0"
     inkscape:window-maximized="1" />
  <metadata
     id="metadata7">
    <rdf:RDF>
      <cc:Work
         rdf:about="">
        <dc:format>image/svg+xml</dc:format>
        <dc:type
           rdf:resource="http://purl.org/dc/dcmitype/StillImage" />
        <dc:title></dc:title>
      </cc:Work>
    </rdf:RDF>
  </metadata>
  <g
     inkscape:label="Layer 1"
     inkscape:groupmode="layer"
     id="layer1"
     transform="translate(0,-796.36216)">
    <path
       id="path3347"
       d="m 334.31716,919.9993 c -33.3761,0 -60.43589,-27.056 -60.43589,-60.43567 0,-33.3799 27.05979,-60.4359 60.43589,-60.4359 22.6814,0 42.41995,12.5118 52.75578,30.9886 2.5084,-0.4269 5.05458,-0.7744 7.6801,-0.7744 25.03492,0 45.32881,20.2976 45.32881,45.33257 0,25.0272 -20.29389,45.3248 -45.32881,45.3248 -10.48316,0 -48.35474,0 -60.43588,0 z m 60.43588,-15.1108 c 16.68994,0 30.22172,-13.5317 30.22172,-30.214 0,-16.68997 -13.53178,-30.22177 -30.22172,-30.22177 -6.04435,0 -11.64292,1.8171 -16.36884,4.8771 -4.65037,-20.0824 -22.56806,-35.095 -44.06704,-35.095 -25.03113,0 -45.32501,20.2939 -45.32501,45.3288 0,25.03107 20.29388,45.32487 45.32501,45.32487 13.664,0 49.03095,0 60.43588,0 z"
       inkscape:connector-curvature="0"
       style="clip-rule:evenodd;fill:#000000;fill-opacity:1;fill-rule:evenodd" />
    <path
       id="path3357"
       d="m -53.654775,1012.7404 -13.45097,0 c -3.71769,0 -6.72885,-3.0112 -6.72885,-6.7255 0,-3.7143 3.01116,-6.72879 6.72885,-6.72879 l 13.45097,0 c 3.71769,0 6.72885,3.01449 6.72885,6.72879 0,3.7143 -3.0078,6.7255 -6.72885,6.7255 z m -26.42755,-44.78389 c -2.62762,2.6277 -6.89371,2.6277 -9.5146,0 -2.6276,-2.6276 -2.6276,-6.8869 0,-9.5145 l 9.5146,-9.5146 c 2.62088,-2.6276 6.88697,-2.6276 9.51459,0 2.62088,2.6276 2.62088,6.8869 0,9.5146 l -9.51459,9.5145 z m -47.576335,78.42489 c -22.29605,0 -40.3731,-18.0738 -40.3731,-40.3665 0,-22.29599 18.07369,-40.36969 40.3731,-40.36969 22.29606,0 40.366365,18.0737 40.366365,40.36969 0,22.2927 -18.070305,40.3665 -40.366365,40.3665 z m 0,-67.27849 c -14.86404,0 -26.9154,12.048 -26.9154,26.91199 0,14.8607 12.05473,26.9121 26.9154,26.9121 14.86067,0 26.90869,-12.0514 26.90869,-26.9121 0,-14.86399 -12.04465,-26.91199 -26.90869,-26.91199 z m 0,-26.912 c -3.7177,0 -6.72886,-3.0146 -6.72886,-6.7289 l 0,-13.45427 c 0,-3.7143 3.01116,-6.7289 6.72886,-6.7289 3.71434,0 6.72886,3.0146 6.72886,6.7289 l 0,13.45427 c 0,3.7143 -3.01789,6.7289 -6.72886,6.7289 z m -47.57633,15.7656 -9.51459,-9.5145 c -2.62762,-2.6277 -2.62762,-6.887 0,-9.5146 2.62761,-2.6276 6.88697,-2.6276 9.51459,0 l 9.51459,9.5146 c 2.62761,2.6276 2.62761,6.8869 0,9.5145 -2.62762,2.6277 -6.88698,2.6277 -9.51459,0 z m -6.2511,38.05839 c 0,3.7143 -3.01453,6.7255 -6.72885,6.7255 l -13.45769,0 c -3.71432,0 -6.72548,-3.0112 -6.72548,-6.7255 0,-3.7143 3.01452,-6.72879 6.72548,-6.72879 l 13.45769,0 c 3.71769,0 6.72885,3.01449 6.72885,6.72879 z m 6.2511,38.0585 c 2.62761,-2.6243 6.88697,-2.6243 9.51459,0 2.62761,2.6276 2.62761,6.8903 0,9.5146 l -9.51459,9.5146 c -2.62762,2.6276 -6.88698,2.6276 -9.51459,0 -2.62762,-2.6243 -2.62762,-6.887 0,-9.5146 l 9.51459,-9.5146 z m 47.57633,15.7657 c 3.71434,0 6.72886,3.0111 6.72886,6.7255 l 0,13.4577 c 0,3.7143 -3.01452,6.7288 -6.72886,6.7288 -3.7177,0 -6.72886,-3.0145 -6.72886,-6.7288 l 0,-13.4577 c 0,-3.7144 3.01116,-6.7255 6.72886,-6.7255 z m 47.576335,-15.7657 9.51459,9.5146 c 2.62088,2.6276 2.62088,6.8903 0,9.5146 -2.62762,2.6276 -6.89371,2.6276 -9.51459,0 l -9.5146,-9.5146 c -2.6276,-2.6243 -2.6276,-6.887 0,-9.5146 2.62089,-2.6276 6.88362,-2.6276 9.5146,0 z"
       inkscape:connector-curvature="0"
       style="clip-rule:evenodd;fill:#000000;fill-opacity:1;fill-rule:evenodd" />
    <path
       id="path3367"
       d="m -66.309596,837.8293 0,-14.7397 c 8.03761,-4.653 13.4577,-13.3264 13.4577,-23.2818 0,-14.86062 -12.05137,-26.91199 -26.9154,-26.91199 -5.38308,0 -10.36915,1.61492 -14.57805,4.34347 -4.1416,-17.88865 -20.099074,-31.2555 -39.246014,-31.2555 -22.29266,0 -40.36635,18.07368 -40.36635,40.36636 0,11.94366 5.21822,22.63586 13.4577,30.02746 l 0,16.5396 c -16.07186,-9.3128 -26.9154,-26.653 -26.9154,-46.56706 0,-29.72469 24.09937,-53.8207 53.82405,-53.8207 20.20001,0 37.779124,11.13961 46.984194,27.59838 2.23398,-0.38018 4.5016,-0.68971 6.83987,-0.68971 22.29604,0 40.36973,18.07369 40.36973,40.36969 0,17.5724 -11.24054,32.4769 -26.91203,38.0215 z m -74.007234,-38.0181 c 3.71431,0 6.72547,3.0145 6.72547,6.7288 l 0,53.8242 c 0,3.7177 -3.01116,6.7289 -6.72547,6.7289 -3.71433,0 -6.72885,-3.0112 -6.72885,-6.7289 l 0,-53.8242 c 0,-3.7143 3.01452,-6.7288 6.72885,-6.7288 z m 26.91202,13.4577 c 3.71432,0 6.72885,3.0112 6.72885,6.7288 l 0,53.8242 c 0,3.7143 -3.01453,6.7289 -6.72885,6.7289 -3.71433,0 -6.72885,-3.0146 -6.72885,-6.7289 l 0,-53.8242 c 0,-3.721 3.01452,-6.7288 6.72885,-6.7288 z m 26.912034,-13.4577 c 3.71432,0 6.72548,3.0145 6.72548,6.7288 l 0,53.8242 c 0,3.7177 -3.01116,6.7289 -6.72548,6.7289 -3.71433,0 -6.72885,-3.0112 -6.72885,-6.7289 l 0,-53.8242 c 0,-3.7143 3.01452,-6.7288 6.72885,-6.7288 z"
       inkscape:connector-curvature="0"
       style="clip-rule:evenodd;fill-rule:evenodd"
       inkscape:export-xdpi="90"
       inkscape:export-ydpi="90" />
    <path
       id="path3377"
       d="M 220.13182,930.23828 208.22838,911.1628 c 6.6389,-12.52175 6.64448,-28.12135 -1.39536,-41.00534 -11.99865,-19.22806 -37.3236,-25.09489 -56.56036,-13.0908 -6.9667,4.34734 -12.11976,10.46676 -15.35889,17.39442 -19.80679,-19.80652 -51.256351,-24.22287 -76.036008,-8.75993 -28.855151,18.00614 -37.642505,55.99468 -19.636405,84.84979 9.642904,15.45293 25.032251,25.08778 41.663987,27.98833 l 13.357273,21.40527 C 65.941717,1000.8716 37.904365,987.18738 21.824618,961.4193 -2.1835968,922.9457 9.5429789,872.2943 48.012163,848.28883 c 26.142508,-16.31338 57.892117,-16.08909 83.097087,-2.22246 2.58413,-2.29619 5.26454,-4.52535 8.29506,-6.41645 28.85515,-18.00613 66.84476,-9.20724 84.84544,19.6392 14.19136,22.74189 11.67201,51.11414 -4.11793,70.94916 z M 104.5084,958.21457 c 4.81136,-3.00238 11.14293,-1.53274 14.14257,3.27424 3.0024,4.81139 1.53723,11.14023 -3.27414,14.14261 -4.80701,2.99965 -11.13583,1.53441 -14.13822,-3.27698 -2.999649,-4.80698 -1.537217,-11.14022 3.26979,-14.13987 z m 21.7367,34.83344 c 4.81136,-3.00237 11.14019,-1.53713 14.14258,3.27425 2.99964,4.80704 1.53171,11.13144 -3.27964,14.13384 -4.80701,2.9997 -11.13583,1.5344 -14.13273,-3.2682 -3.00513,-4.8158 -1.53722,-11.14023 3.26979,-14.13989 z m 23.96518,-39.15328 c 4.80702,-2.99967 11.14018,-1.53714 14.14257,3.27425 2.99957,4.80685 1.53271,11.14267 -3.27431,14.14234 -4.81136,3.00238 -11.14284,1.53285 -14.14241,-3.274 -3.00512,-4.81578 -1.53722,-11.14022 3.27415,-14.14259 z m 21.7312,34.82465 c 4.80702,-2.99967 11.14286,-1.53285 14.14249,3.27411 3.00239,4.81136 1.53291,11.14301 -3.27412,14.14271 -4.81137,3.0023 -11.1402,1.537 -14.14259,-3.2743 -2.99963,-4.80704 -1.53714,-11.14015 3.27422,-14.14252 z m 2.22512,-73.97277 c 4.81137,-3.00239 11.14293,-1.53274 14.14257,3.27426 3.00239,4.81138 1.53722,11.14021 -3.27415,14.14259 -4.807,2.99966 -11.13583,1.53441 -14.13822,-3.27698 -2.99964,-4.80698 -1.53287,-11.14293 3.2698,-14.13987 z m 21.73669,34.83345 c 4.81137,-3.00239 11.14018,-1.53713 14.14257,3.27425 2.99965,4.80699 1.53174,11.13142 -3.27963,14.1338 -4.80702,2.99966 -11.13583,1.53441 -14.13273,-3.26818 -3.00513,-4.81577 -1.53288,-11.14292 3.26979,-14.13987 z"
       inkscape:connector-curvature="0"
       style="clip-rule:evenodd;fill-rule:evenodd" />
    <g
       id="g4516"
       transform="matrix(0.87855184,0,0,0.87855184,-7.462519,275.39805)">
      <path
         inkscape:connector-curvature="0"
         id="path4190"
         d="m 18.571429,923.00502 0,47.85714 62.142857,0"
         style="fill:none;fill-rule:evenodd;stroke:#000000;stroke-width:13;stroke-linecap:butt;stroke-linejoin:round;stroke-miterlimit:4;stroke-dasharray:none;stroke-opacity:1" />
      <path
         sodipodi:nodetypes="ccccc"
         inkscape:connector-curvature="0"
         id="path4504"
         d="m 100.29249,977.36216 -19.494038,0 -19.494041,0 -0.23298,-26.1677 z"
         inkscape:transform-center-y="-4.6075103"
         style="fill:#000000;fill-opacity:1;stroke-width:13;stroke-linejoin:round;stroke-miterlimit:4;stroke-dasharray:none" />
    </g>
    <path
       id="path4521"
       d="m 400.705,1129.4886 c -11.37015,0 -20.59133,5.028 -20.59133,11.2279 0,-6.1999 -9.21369,-11.2279 -20.59134,-11.2279 -6.97486,0 -13.11857,1.9056 -16.83999,4.7996 l 0,32.6318 3.74388,0 0,14.9755 c 0,4.1333 3.35078,7.4878 7.48777,7.4878 4.13326,0 7.48028,-3.3545 7.48028,-7.4878 0,-4.1332 3.35452,-7.4878 7.48777,-7.4878 4.13698,0 7.48775,3.3546 7.48775,7.4878 0,12.4036 -10.05606,22.4596 -22.4558,22.4596 -12.40722,0 -22.46329,-10.056 -22.46329,-22.4596 l 0,-14.9755 3.74389,0 0,-32.6318 c -3.72142,-2.894 -9.86513,-4.7996 -16.84747,-4.7996 -11.37016,0 -20.58386,5.028 -20.58386,11.2279 l 0,0 c 0,-6.1999 -9.22117,-11.2279 -20.59134,-11.2279 -11.37017,0 -20.59135,5.028 -20.59135,11.2279 0,-26.8774 36.87723,-59.8946 82.36164,-59.8946 45.48441,0 82.34666,33.0172 82.34666,59.8946 0,-6.1999 -9.21369,-11.2279 -20.58387,-11.2279 z"
       inkscape:connector-curvature="0"
       style="clip-rule:evenodd;fill-rule:evenodd" />
    <path
       id="path4531"
       d="m 384.12669,1022.9425 0,0.1076 -1.58133,0 -6.33377,0 c -2.33082,0 -4.22251,-1.8895 -4.22251,-4.2225 0,-2.3308 1.89169,-4.2204 4.22251,-4.2204 l 6.33377,0 c 2.33083,0 4.2204,-1.8916 4.2204,-4.2225 0,-2.3308 -1.88957,-4.2204 -4.2204,-4.2204 -2.33083,0 -4.22251,-1.8917 -4.22251,-4.2225 0,-2.33293 1.89168,-4.2225 4.22251,-4.2225 0.29135,0 0.57426,0.0296 0.84872,0.0866 6.59134,0.44548 11.8167,5.8756 11.8167,12.5789 0,6.4562 -4.83689,11.7744 -11.08409,12.5577 z m -22.69177,-25.2232 c -2.33083,0 -4.22251,-1.89168 -4.22251,-4.22251 0,-2.33083 1.89168,-4.22251 4.22251,-4.22251 0.29135,0 0.57426,0.0296 0.85084,0.0866 6.58922,0.44548 11.81458,5.87562 11.81458,12.58102 0,6.4583 -4.83689,11.7744 -11.08198,12.5556 l 0,0.1098 -1.58344,0 -16.85836,0 c -8.47036,0 -23.97964,0 -29.58291,0 -2.33083,0 -4.22251,1.8917 -4.22251,4.2204 0,2.3329 1.89168,4.2225 4.22251,4.2225 l 46.44127,0 1.58344,0 0,0.1119 c 6.24509,0.779 11.08198,6.0994 11.08198,12.5556 0,6.7033 -5.22536,12.1334 -11.81458,12.5789 -0.27658,0.055 -0.5616,0.087 -0.85084,0.087 -2.33083,0 -4.22251,-1.8917 -4.22251,-4.2225 0,-2.3309 1.89168,-4.2204 4.22251,-4.2204 2.33083,0 4.22251,-1.8917 4.22251,-4.2225 0,-2.333 -1.89168,-4.2226 -4.22251,-4.2226 l -46.44127,0 -1.58344,0 0,-0.1097 c -6.24721,-0.7812 -11.08409,-6.1016 -11.08409,-12.5578 0,-2.2274 0.62071,-4.2901 1.632,-6.1015 -13.22701,-4.5772 -22.74033,-17.10963 -22.74033,-31.89475 0,-18.65294 15.12081,-33.77586 33.77586,-33.77586 12.67598,0 23.70728,6.99248 29.48368,17.32074 1.40187,-0.24069 2.82064,-0.43281 4.29218,-0.43281 12.44795,0 22.77621,8.9855 24.90858,20.8212 -2.9452,-2.1007 -6.43933,-3.47513 -10.23748,-3.83193 -2.9072,-5.10079 -8.38379,-8.54425 -14.6711,-8.54425 -3.38012,0 -6.51111,1.0134 -9.15018,2.72352 -2.59895,-11.22343 -12.61053,-19.61356 -24.62568,-19.61356 -13.99129,0 -25.33295,11.34166 -25.33295,25.33295 0,13.98918 11.34166,25.33295 25.33295,25.33295 5.48504,0 17.21095,0 25.7552,0 l 20.68607,0 c 2.33083,0 4.22251,-1.8917 4.22251,-4.2225 0,-2.33506 -1.88957,-4.22252 -4.22251,-4.22252 z"
       inkscape:connector-curvature="0"
       style="clip-rule:evenodd;fill-rule:evenodd" />
    <circle
       style="fill:#000000;fill-opacity:1;stroke-width:13;stroke-linejoin:round;stroke-miterlimit:4;stroke-dasharray:none"
       id="path4555"
       cx="151.52287"
       cy="1032.6642"
       r="9.5964489" />
    <circle
       style="fill:#000000;fill-opacity:1;stroke-width:13;stroke-linejoin:round;stroke-miterlimit:4;stroke-dasharray:none"
       id="path4555-6"
       cx="199.00005"
       cy="1031.6541"
       r="9.5964489" />
    <circle
       style="fill:#000000;fill-opacity:1;stroke-width:13;stroke-linejoin:round;stroke-miterlimit:4;stroke-dasharray:none"
       id="path4555-6-7"
       cx="219.70818"
       cy="991.24792"
       r="9.5964489" />
    <circle
       style="fill:#000000;fill-opacity:1;stroke-width:13;stroke-linejoin:round;stroke-miterlimit:4;stroke-dasharray:none"
       id="path4555-6-7-5"
       cx="240.41631"
       cy="1022.5627"
       r="9.5964489" />
  </g>
</svg>
